<svg width="14" height="14" viewBox="0 0 14 14" fill="none" xmlns="http://www.w3.org/2000/svg">
<path d="M7 14C3.14 14 0 10.86 0 7C0 3.14 3.14 0 7 0C10.86 0 14 3.14 14 7C14 10.86 10.86 14 7 14ZM7 1C3.69 1 1 3.69 1 7C1 10.31 3.69 13 7 13C10.31 13 13 10.31 13 7C13 3.69 10.31 1 7 1Z" fill="#333333"/>
<path d="M9.00001 9.5C8.91001 9.5 8.82001 9.48 8.74001 9.43L6.24001 7.93C6.1663 7.88513 6.10546 7.82195 6.0634 7.74659C6.02134 7.67124 5.99951 7.58629 6.00001 7.5V3.5C6.00001 3.22 6.22001 3 6.50001 3C6.78001 3 7.00001 3.22 7.00001 3.5V7.22L9.26001 8.57C9.3531 8.62705 9.42504 8.7129 9.46495 8.81453C9.50485 8.91615 9.51054 9.02802 9.48114 9.13317C9.45175 9.23831 9.38887 9.33101 9.30205 9.39721C9.21523 9.46341 9.10919 9.49949 9.00001 9.5Z" fill="#333333"/>
</svg>
