<svg width="126" height="126" viewBox="0 0 126 126" fill="none" xmlns="http://www.w3.org/2000/svg">
<path d="M124.267 29.4272L96.6 24.6092V2.1C96.6 0.940632 95.6594 0 94.5 0H14.7C6.59526 0 0 6.59526 0 14.7V102.9C0 110.294 5.49066 116.408 12.6 117.431V123.9C12.6 124.6 12.95 125.245 13.5242 125.634C14.0984 126.028 14.8258 126.093 15.482 125.842L25.1999 121.948L34.9179 125.842C35.1695 125.94 35.4374 125.995 35.6999 125.995C36.121 125.995 36.5257 125.869 36.8757 125.628C37.4499 125.235 37.7999 124.595 37.7999 123.895V117.595H94.4999C95.6593 117.595 96.5999 116.654 96.5999 115.495C96.5999 114.335 95.6593 113.395 94.4999 113.395H88.1999V92.3947H94.4999C95.6593 92.3947 96.5999 91.454 96.5999 90.2947V79.7947H102.9C103.529 79.7947 104.13 79.5158 104.524 79.0236C104.918 78.5314 105.082 77.9025 104.956 77.2736L103.135 68.2009C104.644 67.8509 106.159 67.5173 107.641 67.1071C108.549 66.8556 109.195 66.0298 109.195 65.0783V36.1711L124.261 33.5515C125.268 33.371 125.995 32.5015 125.995 31.4788C125.995 30.4561 125.268 29.5866 124.261 29.4061L124.267 29.4272ZM4.2 14.6992C4.2 9.62962 7.80934 5.3914 12.6 4.40692V88.3635C9.32428 88.8393 6.40934 90.3924 4.2 92.6456V14.6992ZM33.6 120.793L25.982 117.741C25.7305 117.643 25.4625 117.588 25.2 117.588C24.932 117.588 24.6695 117.643 24.418 117.741L16.8 120.793V104.999H33.6L33.6 120.793ZM84 113.399H37.8V104.999H73.5C74.6594 104.999 75.6 104.058 75.6 102.899C75.6 101.74 74.6594 100.799 73.5 100.799H14.7C13.5406 100.799 12.6 101.74 12.6 102.899V113.191C7.80934 112.212 4.2 107.968 4.2 102.899C4.2 97.102 8.90316 92.3989 14.7 92.3989H84V113.399ZM92.4 88.1989H16.8V4.19888H92.4V23.8815L75.9668 21.0267C75.7262 20.983 75.491 20.983 75.2504 21.0267L26.9504 29.4267C25.9441 29.6072 25.2168 30.4767 25.2168 31.4994C25.2168 32.5221 25.9441 33.3917 26.9504 33.5721L42.0172 36.1917V65.0989C42.0172 66.0504 42.6461 66.8762 43.5704 67.1278C54.054 69.9714 64.8378 71.3989 75.6178 71.3989C78.8389 71.3989 82.0873 71.2294 85.3193 70.9669L84.0615 77.2832C83.9357 77.9012 84.1053 78.5411 84.4935 79.0332C84.8873 79.5254 85.4889 79.8043 86.1178 79.8043H92.4178V88.2043L92.4 88.1989ZM92.4 46.1989H90.3C89.1406 46.1989 88.2 47.1395 88.2 48.2989V56.4911L86.1547 66.6959C72.7836 67.899 59.2593 66.8216 46.2001 63.4747V36.9181L75.2333 41.9713C75.3427 41.9877 75.474 41.9986 75.5997 41.9986C75.7255 41.9986 75.8404 41.9986 75.9662 41.9713L92.3994 39.1166L92.4 46.1989ZM96.6 50.3989V54.5989H92.4V50.3989H96.6ZM88.6593 75.5989L92.0171 58.7989H96.9718L100.33 75.5989H88.6539H88.6593ZM105 63.4746C104.12 63.6988 103.223 63.8957 102.326 64.1035L100.8 56.4855V48.2933C100.8 47.1339 99.8595 46.1933 98.7001 46.1933H96.6001V38.3676L105 36.9128V63.4746ZM95.9549 34.2272C95.676 33.9592 95.3533 33.735 94.9486 33.653L76.0486 29.453C74.9166 29.2014 73.7955 29.9124 73.5439 31.0498C73.2923 32.1818 74.0033 33.303 75.1407 33.5546L85.9907 35.9609L75.6001 37.7656L39.5501 31.4929L75.6001 25.2202L111.65 31.4929L95.9715 34.2218L95.9549 34.2272Z" fill="#006400"/>
</svg>
