<svg width="124" height="125" viewBox="0 0 124 125" fill="none" xmlns="http://www.w3.org/2000/svg">
<path d="M61.7006 53.375C52.8767 53.375 45.6975 60.5612 45.6975 69.3953C45.6975 78.2294 52.8767 85.4123 61.7006 85.4123C70.5244 85.4123 77.7037 78.2261 77.7037 69.3937C77.7037 60.5612 70.5244 53.375 61.7006 53.375ZM61.7006 81.4006C55.0856 81.4006 49.7053 76.0151 49.7053 69.3937C49.7053 62.7723 55.0856 57.3867 61.7006 57.3867C68.3156 57.3867 73.6958 62.7739 73.6958 69.3937C73.6958 76.0134 68.3156 81.4006 61.7006 81.4006ZM98.5559 81.1896C106.216 81.1896 112.45 74.9503 112.45 67.2823C112.45 59.6144 106.216 53.375 98.5559 53.375C90.8954 53.375 84.6622 59.6144 84.6622 67.2823C84.6622 74.9503 90.8954 81.1896 98.5559 81.1896ZM98.5559 57.3867C104.006 57.3867 108.442 61.8254 108.442 67.2823C108.442 72.7376 104.008 77.1779 98.5559 77.1779C93.1043 77.1779 88.67 72.7393 88.67 67.2823C88.67 61.827 93.1043 57.3867 98.5559 57.3867ZM98.5559 82.1481C90.532 82.1481 83.2084 86.228 78.5368 93.1583C73.7921 89.4473 67.9787 87.2529 61.7006 87.2529C55.4225 87.2529 49.6091 89.4473 44.8644 93.1583C40.1927 86.2263 32.8691 82.1481 24.8452 82.1481C11.1456 82.1481 0 94.2514 0 109.129C0 109.542 0.00829834 109.953 0.0248939 110.361C0.116169 112.562 1.91181 114.285 4.11237 114.285H33.0899C32.9056 115.717 32.8027 117.177 32.8027 118.664C32.8027 119.146 32.8127 119.624 32.8326 120.101C32.9339 122.5 34.8905 124.38 37.2885 124.38H86.1126C88.5107 124.38 90.4689 122.501 90.5685 120.101C90.5884 119.626 90.5984 119.146 90.5984 118.666C90.5984 117.179 90.4955 115.719 90.3113 114.287H119.289C121.488 114.287 123.283 112.564 123.376 110.363C123.393 109.954 123.401 109.544 123.401 109.131C123.401 94.2514 112.256 82.1481 98.5559 82.1481ZM33.8483 110.273H4.11237C4.06923 110.273 4.03272 110.238 4.03106 110.195C4.01612 109.841 4.00782 109.486 4.00782 109.129C4.00782 96.4641 13.3561 86.1615 24.8452 86.1615C31.6776 86.1615 37.9324 89.753 41.844 95.8445C41.6814 96.0122 41.532 96.1916 41.3743 96.3627C41.2814 96.4624 41.1901 96.5654 41.0972 96.6684C40.6325 97.185 40.1845 97.7166 39.753 98.2648C39.6285 98.4226 39.5007 98.5771 39.3796 98.7365C39.1954 98.9807 39.0194 99.2299 38.8435 99.4791C38.6527 99.7465 38.4668 100.017 38.2843 100.291C38.1432 100.504 38.0005 100.717 37.8644 100.933C37.5574 101.419 37.2587 101.914 36.9765 102.421C36.9218 102.519 36.872 102.62 36.8189 102.718C36.5716 103.174 36.3343 103.637 36.1069 104.107C36.0289 104.27 35.9526 104.433 35.8762 104.597C35.6605 105.064 35.4531 105.539 35.2589 106.019C35.2141 106.127 35.166 106.235 35.1228 106.343C34.8971 106.914 34.6897 107.494 34.4955 108.082C34.4391 108.255 34.3876 108.429 34.3329 108.604C34.1984 109.036 34.0706 109.473 33.9528 109.913C33.9196 110.031 33.8781 110.15 33.8483 110.273ZM86.564 119.935C86.554 120.177 86.3566 120.368 86.1126 120.368H37.2885C37.0462 120.368 36.8471 120.177 36.8371 119.936C36.8205 119.514 36.8106 119.091 36.8106 118.666C36.8106 116.523 37.0429 114.438 37.4678 112.436C37.6022 111.802 37.7499 111.172 37.9258 110.551C37.9341 110.521 37.944 110.491 37.9523 110.461C38.1316 109.835 38.3357 109.219 38.5564 108.609C38.5946 108.504 38.6311 108.398 38.6693 108.293C38.8966 107.684 39.1456 107.082 39.4128 106.491C39.4526 106.401 39.4957 106.313 39.5372 106.223C39.821 105.614 40.1197 105.014 40.4433 104.429C40.4467 104.423 40.45 104.418 40.455 104.411C40.767 103.85 41.1022 103.305 41.449 102.768C41.5187 102.662 41.5851 102.554 41.6565 102.448C41.9834 101.958 42.3269 101.482 42.6837 101.017C42.8016 100.865 42.9211 100.713 43.0422 100.562C43.3841 100.134 43.7359 99.7133 44.1027 99.3097C44.247 99.1518 44.3964 99.0007 44.5441 98.8445C44.8229 98.5505 45.11 98.2648 45.4021 97.9857C49.7734 93.8062 55.4706 91.2663 61.7022 91.2663C67.9322 91.2663 73.6311 93.8045 78.0024 97.984C78.2961 98.2664 78.5849 98.5538 78.867 98.8495C79.0097 98.999 79.1558 99.1452 79.2935 99.298C79.6652 99.7083 80.022 100.134 80.3689 100.569C80.4867 100.715 80.6029 100.863 80.7174 101.012C81.0759 101.481 81.4244 101.961 81.753 102.454C81.8193 102.554 81.8841 102.657 81.9488 102.758C82.6674 103.865 83.3113 105.026 83.8722 106.235C83.9104 106.318 83.9502 106.401 83.9884 106.484C84.2572 107.079 84.5078 107.684 84.7368 108.298C84.7734 108.398 84.8082 108.499 84.8447 108.599C85.0687 109.219 85.2762 109.846 85.4587 110.483C85.4621 110.498 85.467 110.511 85.472 110.526C85.6513 111.159 85.8023 111.802 85.94 112.449C86.3632 114.448 86.5939 116.526 86.5939 118.666C86.5906 119.091 86.5806 119.514 86.564 119.935ZM119.372 110.194C119.37 110.238 119.334 110.273 119.29 110.273H89.5529C89.523 110.157 89.4832 110.042 89.4516 109.926C89.3305 109.473 89.201 109.026 89.0616 108.581C89.0102 108.416 88.9621 108.252 88.909 108.089C88.7131 107.494 88.5024 106.908 88.275 106.331C88.2368 106.235 88.1937 106.14 88.1555 106.044C87.9547 105.549 87.7423 105.061 87.5182 104.579C87.4469 104.424 87.3755 104.272 87.3009 104.119C87.0652 103.632 86.8212 103.152 86.5623 102.68C86.5175 102.597 86.4744 102.511 86.4279 102.428C86.1408 101.914 85.8388 101.413 85.5268 100.919C85.3973 100.713 85.2629 100.512 85.1285 100.31C84.936 100.021 84.7402 99.7366 84.5394 99.4542C84.3701 99.2166 84.2025 98.9791 84.0266 98.7449C83.8706 98.5372 83.7063 98.3379 83.5436 98.1352C83.1503 97.6402 82.7437 97.1568 82.3205 96.6883C82.2176 96.5754 82.1164 96.4608 82.0118 96.3478C81.8575 96.18 81.7115 96.0039 81.5522 95.8411C85.4637 89.7496 91.7186 86.1582 98.5526 86.1582C110.042 86.1582 119.39 96.4608 119.39 109.126C119.393 109.486 119.387 109.841 119.372 110.194ZM24.8452 81.1896C32.5057 81.1896 38.739 74.9503 38.739 67.2823C38.739 59.6144 32.5057 53.375 24.8452 53.375C17.1847 53.375 10.9514 59.6144 10.9514 67.2823C10.9514 74.9503 17.1847 81.1896 24.8452 81.1896ZM24.8452 57.3867C30.2968 57.3867 34.7312 61.8254 34.7312 67.2823C34.7312 72.7376 30.2968 77.1779 24.8452 77.1779C19.3952 77.1779 14.9592 72.7393 14.9592 67.2823C14.9592 61.827 19.3952 57.3867 24.8452 57.3867ZM41.3976 20.5835L49.8597 26.7133C49.941 26.7714 49.9609 26.8329 49.9294 26.9275L46.6816 36.8663C46.114 38.6056 46.7248 40.4976 48.2034 41.5724C49.6821 42.6488 51.6686 42.6472 53.1472 41.5691L61.5861 35.4078C61.6657 35.348 61.7321 35.348 61.8118 35.4078L70.2506 41.5691C70.9908 42.109 71.857 42.3797 72.725 42.3797C73.5896 42.3797 74.4542 42.1106 75.1944 41.5741C76.6731 40.4976 77.2854 38.6056 76.7162 36.8663L73.4685 26.9275C73.4386 26.8345 73.4585 26.7714 73.5382 26.7133L82.0002 20.5835C83.4822 19.5104 84.0979 17.62 83.5337 15.8791C82.9694 14.1415 81.3646 12.9754 79.5408 12.9754C79.5375 12.9754 79.5341 12.9754 79.5325 12.9754L69.0856 12.9953C68.9877 12.9953 68.9329 12.9571 68.903 12.8624L65.6935 2.91203C65.1325 1.16946 63.5261 0 61.6973 0C59.8684 0 58.262 1.17112 57.6994 2.91203L54.4915 12.8624C54.4616 12.9571 54.4085 12.9953 54.3089 12.9953L43.862 12.9754C43.8604 12.9754 43.857 12.9754 43.8554 12.9754C42.0299 12.9754 40.4251 14.1415 39.8608 15.8791C39.2999 17.6184 39.9139 19.5088 41.3976 20.5835ZM43.6778 17.1183C43.7077 17.0237 43.7608 16.9855 43.8587 16.9855L54.3056 17.0054C56.0996 16.9788 57.7459 15.8392 58.3101 14.0934L61.518 4.14296C61.5778 3.95524 61.8217 3.95358 61.8815 4.14296L65.091 14.0934C65.6536 15.8359 67.2584 17.0054 69.0872 17.0054C69.0906 17.0054 69.0939 17.0054 69.0955 17.0054L79.5424 16.9855C79.6486 16.9821 79.6935 17.0237 79.7233 17.1167C79.7532 17.2114 79.7333 17.2728 79.6536 17.3326L71.1899 23.4623C69.7063 24.5388 69.0922 26.4325 69.6615 28.1734L72.9092 38.1122C72.9391 38.2069 72.9192 38.2683 72.8395 38.3265C72.7598 38.3863 72.6935 38.3846 72.6155 38.3265L64.175 32.1636C63.4348 31.6237 62.5685 31.3546 61.7022 31.3546C60.8343 31.3546 59.968 31.6237 59.2278 32.1636L50.7873 38.3265C50.7077 38.3863 50.643 38.3846 50.5633 38.3265C50.482 38.2683 50.4621 38.2069 50.4936 38.1122L53.7413 28.1734C54.3106 26.4309 53.6965 24.5371 52.2112 23.4607L43.7492 17.331C43.6662 17.2745 43.6463 17.213 43.6778 17.1183Z" fill="#006400"/>
</svg>
