<svg width="32" height="32" viewBox="0 0 32 32" fill="none" xmlns="http://www.w3.org/2000/svg">
<path d="M23.3333 8.66699H23.3467M9.33332 2.66699H22.6667C26.3486 2.66699 29.3333 5.65176 29.3333 9.33366V22.667C29.3333 26.3489 26.3486 29.3337 22.6667 29.3337H9.33332C5.65142 29.3337 2.66666 26.3489 2.66666 22.667V9.33366C2.66666 5.65176 5.65142 2.66699 9.33332 2.66699ZM21.3333 15.1603C21.4979 16.27 21.3083 17.4033 20.7917 18.399C20.275 19.3947 19.4575 20.2022 18.4555 20.7066C17.4535 21.2109 16.3179 21.3865 15.2104 21.2082C14.1028 21.03 13.0797 20.5071 12.2864 19.7139C11.4932 18.9206 10.9703 17.8975 10.7921 16.7899C10.6139 15.6824 10.7894 14.5469 11.2938 13.5448C11.7981 12.5428 12.6056 11.7253 13.6013 11.2086C14.597 10.692 15.7303 10.5024 16.84 10.667C17.9719 10.8348 19.0198 11.3623 19.8289 12.1714C20.638 12.9805 21.1655 14.0284 21.3333 15.1603Z" stroke="white" stroke-width="3" stroke-linecap="round" stroke-linejoin="round"/>
</svg>
