<svg width="23" height="40" viewBox="0 0 23 40" fill="none" xmlns="http://www.w3.org/2000/svg">
<path fill-rule="evenodd" clip-rule="evenodd" d="M4.305 19.7716C10.055 14.0033 15.675 8.37497 21.165 2.88664C21.4524 2.58455 21.6126 2.18357 21.6126 1.76664C21.6126 1.3497 21.4524 0.948721 21.165 0.646636C20.3875 -0.218364 19.1575 -0.143364 18.5975 0.446636C12.9075 6.15164 6.955 12.1141 0.74 18.3341C0.246667 18.7391 0 19.2175 0 19.7691C0 20.3208 0.246667 20.8141 0.74 21.2491L19.4475 39.5141C19.8066 39.8437 20.28 40.0204 20.7672 40.0068C21.2544 39.9933 21.7172 39.7906 22.0575 39.4416C22.9525 38.5441 22.6075 37.6591 22.2025 37.2391C16.2273 31.4246 10.2606 25.6012 4.3025 19.7691" fill="#000000"/>
</svg>
