<svg width="32" height="32" viewBox="0 0 32 32" fill="none" xmlns="http://www.w3.org/2000/svg">
<path fill-rule="evenodd" clip-rule="evenodd" d="M6.66667 1.66699C5.69421 1.66699 4.76158 2.0533 4.07394 2.74093C3.38631 3.42857 3 4.3612 3 5.33366C3 6.30612 3.38631 7.23875 4.07394 7.92638C4.76158 8.61402 5.69421 9.00033 6.66667 9.00033C7.63913 9.00033 8.57176 8.61402 9.25939 7.92638C9.94703 7.23875 10.3333 6.30612 10.3333 5.33366C10.3333 4.3612 9.94703 3.42857 9.25939 2.74093C8.57176 2.0533 7.63913 1.66699 6.66667 1.66699ZM5 5.33366C5 4.89163 5.17559 4.46771 5.48816 4.15515C5.80072 3.84259 6.22464 3.66699 6.66667 3.66699C7.10869 3.66699 7.53262 3.84259 7.84518 4.15515C8.15774 4.46771 8.33333 4.89163 8.33333 5.33366C8.33333 5.77569 8.15774 6.19961 7.84518 6.51217C7.53262 6.82473 7.10869 7.00033 6.66667 7.00033C6.22464 7.00033 5.80072 6.82473 5.48816 6.51217C5.17559 6.19961 5 5.77569 5 5.33366ZM3 10.667C3 10.4018 3.10536 10.1474 3.29289 9.95989C3.48043 9.77235 3.73478 9.66699 4 9.66699H9.33333C9.59855 9.66699 9.8529 9.77235 10.0404 9.95989C10.228 10.1474 10.3333 10.4018 10.3333 10.667V28.0003C10.3333 28.2655 10.228 28.5199 10.0404 28.7074C9.8529 28.895 9.59855 29.0003 9.33333 29.0003H4C3.73478 29.0003 3.48043 28.895 3.29289 28.7074C3.10536 28.5199 3 28.2655 3 28.0003V10.667ZM5 11.667V27.0003H8.33333V11.667H5ZM12.3333 10.667C12.3333 10.4018 12.4387 10.1474 12.6262 9.95989C12.8138 9.77235 13.0681 9.66699 13.3333 9.66699H18.6667C18.9319 9.66699 19.1862 9.77235 19.3738 9.95989C19.5613 10.1474 19.6667 10.4018 19.6667 10.667V11.2457L20.2467 10.9963C21.2467 10.5691 22.3076 10.3014 23.3907 10.203C27.0907 9.86699 30.3333 12.7737 30.3333 16.507V28.0003C30.3333 28.2655 30.228 28.5199 30.0404 28.7074C29.8529 28.895 29.5986 29.0003 29.3333 29.0003H24C23.7348 29.0003 23.4804 28.895 23.2929 28.7074C23.1054 28.5199 23 28.2655 23 28.0003V18.667C23 18.225 22.8244 17.801 22.5118 17.4885C22.1993 17.1759 21.7754 17.0003 21.3333 17.0003C20.8913 17.0003 20.4674 17.1759 20.1548 17.4885C19.8423 17.801 19.6667 18.225 19.6667 18.667V28.0003C19.6667 28.2655 19.5613 28.5199 19.3738 28.7074C19.1862 28.895 18.9319 29.0003 18.6667 29.0003H13.3333C13.0681 29.0003 12.8138 28.895 12.6262 28.7074C12.4387 28.5199 12.3333 28.2655 12.3333 28.0003V10.667ZM14.3333 11.667V27.0003H17.6667V18.667C17.6667 17.6945 18.053 16.7619 18.7406 16.0743C19.4282 15.3866 20.3609 15.0003 21.3333 15.0003C22.3058 15.0003 23.2384 15.3866 23.9261 16.0743C24.6137 16.7619 25 17.6945 25 18.667V27.0003H28.3333V16.507C28.3333 13.9683 26.1187 11.963 23.5733 12.195C22.6989 12.2743 21.8422 12.4903 21.0347 12.835L19.0613 13.6817C18.9091 13.747 18.7431 13.7736 18.5781 13.7589C18.4131 13.7442 18.2543 13.6888 18.116 13.5976C17.9777 13.5064 17.8643 13.3822 17.7859 13.2363C17.7074 13.0904 17.6665 12.9273 17.6667 12.7617V11.667H14.3333Z" fill="white"/>
</svg>
