<svg width="17" height="21" viewBox="0 0 17 21" fill="none" xmlns="http://www.w3.org/2000/svg">
<path d="M8.40002 10.4C8.95002 10.4 9.42086 10.2042 9.81252 9.81252C10.2042 9.42086 10.4 8.95002 10.4 8.40002C10.4 7.85002 10.2042 7.37919 9.81252 6.98752C9.42086 6.59586 8.95002 6.40002 8.40002 6.40002C7.85002 6.40002 7.37919 6.59586 6.98752 6.98752C6.59586 7.37919 6.40002 7.85002 6.40002 8.40002C6.40002 8.95002 6.59586 9.42086 6.98752 9.81252C7.37919 10.2042 7.85002 10.4 8.40002 10.4ZM8.40002 17.75C10.4334 15.8834 11.9417 14.1875 12.925 12.6625C13.9084 11.1375 14.4 9.78336 14.4 8.60002C14.4 6.78336 13.8209 5.29586 12.6625 4.13752C11.5042 2.97919 10.0834 2.40002 8.40002 2.40002C6.71669 2.40002 5.29586 2.97919 4.13752 4.13752C2.97919 5.29586 2.40002 6.78336 2.40002 8.60002C2.40002 9.78336 2.89169 11.1375 3.87502 12.6625C4.85836 14.1875 6.36669 15.8834 8.40002 17.75ZM8.40002 20.4C5.71669 18.1167 3.71252 15.9959 2.38752 14.0375C1.06252 12.0792 0.400024 10.2667 0.400024 8.60002C0.400024 6.10002 1.20419 4.10836 2.81252 2.62502C4.42086 1.14169 6.28336 0.400024 8.40002 0.400024C10.5167 0.400024 12.3792 1.14169 13.9875 2.62502C15.5959 4.10836 16.4 6.10002 16.4 8.60002C16.4 10.2667 15.7375 12.0792 14.4125 14.0375C13.0875 15.9959 11.0834 18.1167 8.40002 20.4Z" fill="white" stroke="white" stroke-width="0.8"/>
</svg>
