<svg width="23" height="41" viewBox="0 0 23 41" fill="none" xmlns="http://www.w3.org/2000/svg">
<path fill-rule="evenodd" clip-rule="evenodd" d="M3.88385 0.462563L21.9913 18.6026C22.1543 18.7583 22.2837 18.9458 22.3714 19.1535C22.4591 19.3612 22.5033 19.5846 22.5014 19.8101C22.5024 20.0405 22.4578 20.269 22.3703 20.4822C22.2828 20.6954 22.154 20.8892 21.9913 21.0526C15.4413 27.4426 9.12885 33.6101 3.05385 39.5551C2.74135 39.8476 1.49135 40.5751 0.52635 39.4951C-0.43865 38.4126 0.14635 37.4701 0.52635 37.0801L18.1964 19.8101L1.32885 2.91256C0.71385 2.06423 0.76385 1.28173 1.47885 0.565062C2.19552 -0.151604 2.99718 -0.187437 3.88385 0.462563Z" fill="#000000"/>
</svg>
