<svg width="104" height="126" viewBox="0 0 104 126" fill="none" xmlns="http://www.w3.org/2000/svg">
<path fill-rule="evenodd" clip-rule="evenodd" d="M48.8065 9.3954C38.8858 11.1272 29.5632 15.659 23.2737 22.8872C16.4152 30.7804 13.8184 41.1572 16.3174 53.3652C16.371 53.6269 16.3687 53.897 16.3109 54.1578C16.2531 54.4185 16.141 54.6642 15.982 54.8786L4.10167 70.9296C3.87378 71.2407 3.77215 71.6268 3.81728 72.0101C3.86242 72.3933 4.05095 72.7451 4.34486 72.9946L9.6896 77.4564C9.90684 77.6371 10.0811 77.8641 10.1995 78.1208C10.318 78.3776 10.3778 78.6576 10.3745 78.9404L10.2808 85.358C10.2808 85.8228 10.4639 86.5032 10.907 86.618L13.2607 87.2606C13.5669 87.3448 13.8473 87.5043 14.0763 87.7247C14.3054 87.9451 14.4757 88.2193 14.572 88.5224C14.6682 88.8256 14.6873 89.148 14.6275 89.4604C14.5676 89.7728 14.4307 90.0653 14.2293 90.3112C13.3311 91.3144 12.5027 92.3781 11.7498 93.4948C11.6389 93.6915 11.6045 93.9224 11.6533 94.143L14.049 102.712C14.2169 103.381 14.596 103.977 15.1296 104.413C15.6633 104.848 16.323 105.099 17.0107 105.129L32.4984 105.84C33.8949 105.894 35.2426 106.369 36.365 107.203C37.4873 108.037 38.3319 109.191 38.788 110.515L42.9209 122.182H83.5823C84.3704 122.189 85.1484 122.004 85.8501 121.645C86.5517 121.285 87.1562 120.761 87.6122 120.117C88.0681 119.473 88.362 118.728 88.4688 117.946C88.5755 117.164 88.492 116.368 88.2254 115.625L81.6563 96.8646C81.2478 95.7387 81.0815 94.5391 81.1682 93.3443C81.2549 92.1496 81.5927 90.9867 82.1594 89.9318C83.1825 87.8836 84.098 86.0986 85.0554 84.231C91.2877 72.1 99.2014 56.6748 99.2014 46.1692C99.2014 36.0486 96.0468 28.077 90.9662 22.1466C85.4345 15.9665 78.089 11.7022 69.9856 9.9666V34.3574C71.4084 35.2736 72.5791 36.5326 73.3905 38.0191C74.2019 39.5057 74.6281 41.1724 74.6301 42.8666V61.3298C74.6235 64.013 73.5564 66.5844 71.6622 68.4818C69.768 70.3791 67.2009 71.4479 64.5221 71.4546H61.2585C60.6994 84.2898 53.5587 90.8992 40.7126 91.0546C40.3029 92.3603 39.4887 93.5013 38.3879 94.3122C37.2871 95.123 35.9571 95.5615 34.5907 95.564H28.2215C26.537 95.5391 24.9299 94.8513 23.7474 93.6493C22.565 92.4473 21.9022 90.8276 21.9022 89.1401C21.9022 87.4526 22.565 85.8329 23.7474 84.6309C24.9299 83.4289 26.537 82.7411 28.2215 82.7162H34.5949C35.9656 82.7189 37.2996 83.1603 38.4022 83.9761C39.5048 84.7919 40.3182 85.9393 40.7237 87.2508C51.4244 87.1024 56.9369 82.1226 57.4554 71.4504H54.2687C51.5899 71.4437 49.0227 70.3749 47.1286 68.4776C45.2344 66.5802 44.1673 64.0088 44.1606 61.3256V42.8666C44.1631 41.1724 44.5895 39.5059 45.4008 38.0194C46.2122 36.5329 47.3826 35.2739 48.8051 34.3574L48.8065 9.3954ZM34.5949 86.5382C35.2745 86.554 35.921 86.8355 36.396 87.3225C36.8711 87.8095 37.1371 88.4634 37.1371 89.1443C37.1371 89.8252 36.8711 90.4791 36.396 90.9661C35.921 91.4531 35.2745 91.7346 34.5949 91.7504H28.2215C27.5419 91.7346 26.8954 91.4531 26.4203 90.9661C25.9453 90.4791 25.6793 89.8252 25.6793 89.1443C25.6793 88.4634 25.9453 87.8095 26.4203 87.3225C26.8954 86.8355 27.5419 86.554 28.2215 86.5382H34.5949ZM64.701 50.5862C64.701 50.0797 64.9018 49.594 65.2594 49.2359C65.6169 48.8778 66.1018 48.6766 66.6074 48.6766C67.113 48.6766 67.598 48.8778 67.9555 49.2359C68.313 49.594 68.5139 50.0797 68.5139 50.5862V61.3298C68.512 62.3895 68.0908 63.4053 67.3426 64.1546C66.5943 64.9038 65.5801 65.3253 64.5221 65.3268H59.3968C59.1422 65.3337 58.8888 65.2894 58.6515 65.1966C58.4143 65.1038 58.198 64.9643 58.0155 64.7863C57.833 64.6084 57.6879 64.3956 57.5888 64.1606C57.4898 63.9256 57.4387 63.673 57.4387 63.4179C57.4387 63.1628 57.4898 62.9102 57.5888 62.6752C57.6879 62.4402 57.833 62.2274 58.0155 62.0494C58.198 61.8715 58.4143 61.732 58.6515 61.6392C58.8888 61.5464 59.1422 61.5021 59.3968 61.509H64.5221L64.701 61.3298V50.5862ZM67.2546 37.191C68.3195 37.7079 69.2182 38.514 69.8483 39.5174C70.4784 40.5208 70.8146 41.6812 70.8186 42.8666V61.3298C70.8105 62.9994 70.1443 64.5982 68.9651 65.7781C67.7858 66.958 66.1889 67.6235 64.5221 67.6298H54.2701C52.6045 67.6217 51.0094 66.9554 49.8316 65.7756C48.6538 64.5959 47.9886 62.9982 47.9805 61.3298V42.8666C47.9882 41.1981 48.6534 39.6002 49.8312 38.4204C51.0091 37.2406 52.6044 36.5743 54.2701 36.5666H64.5221C65.4691 36.5656 66.4037 36.7816 67.2546 37.198V37.191ZM66.1741 32.8776C65.6282 32.7855 65.0757 32.7387 64.5221 32.7376H54.2701C53.717 32.7386 53.1649 32.7855 52.6194 32.8776V7.0392C52.6235 6.18645 52.9635 5.36978 53.5654 4.76679C54.1674 4.1638 54.9828 3.82325 55.8341 3.8192H62.9623C63.8136 3.82325 64.6289 4.1638 65.2309 4.76679C65.8329 5.36978 66.1729 6.18645 66.1769 7.0392V32.8776H66.1741ZM69.9143 6.0396C79.1643 7.84962 87.5711 12.6356 93.8566 19.67C99.5075 26.2668 103.017 35.07 103.017 46.1692C103.017 59.3768 92.2898 78.1396 85.4999 91.777C85.1915 92.3632 85.0101 93.0081 84.9677 93.6694C84.9253 94.3307 85.0228 94.9935 85.2539 95.6144L91.816 114.374C92.2796 115.692 92.4208 117.101 92.2275 118.484C92.0342 119.868 91.5123 121.184 90.7054 122.323C89.8986 123.463 88.8305 124.391 87.591 125.031C86.3515 125.671 84.9767 126.003 83.5823 126H41.5833C41.1895 126 40.8054 125.877 40.484 125.649C40.1626 125.422 39.9197 125.099 39.7887 124.727L35.2043 111.786C35.0019 111.177 34.6177 110.646 34.1037 110.263C33.5896 109.881 32.9707 109.666 32.3307 109.648L16.8443 108.931C15.3538 108.868 13.9226 108.329 12.7599 107.393C11.5973 106.456 10.7643 105.172 10.3828 103.727L7.99561 95.1636C7.78892 94.272 7.81279 93.3424 8.06495 92.4626C8.31711 91.5829 8.78923 90.7822 9.43662 90.1362C8.51594 89.7246 7.74106 89.0437 7.21374 88.183C6.68642 87.3222 6.43131 86.3218 6.48192 85.3132L6.56578 79.8L1.91848 75.922C0.872524 75.055 0.199163 73.8185 0.0376187 72.4683C-0.123925 71.118 0.2387 69.7572 1.05052 68.6672L12.4333 53.291C9.91742 40.0218 13.0692 28.8288 20.4 20.391C27.4513 12.271 37.9396 7.2786 48.9715 5.5188C49.3206 3.95446 50.1909 2.55573 51.4392 1.55271C52.6875 0.549675 54.2394 0.00208111 55.8397 0H62.9679C64.656 0.00642948 66.2857 0.619625 67.5605 1.72803C68.8354 2.83644 69.6706 4.36641 69.9143 6.0396Z" fill="#006400"/>
</svg>
