<svg width="32" height="32" viewBox="0 0 32 32" fill="none" xmlns="http://www.w3.org/2000/svg">
<path d="M14.35 12.8054C12.7285 12.3088 10.9959 12.3497 9.39837 12.9222C7.80079 13.4948 6.41945 14.5699 5.45054 15.9949C4.48163 17.4198 3.97444 19.1222 4.00099 20.8601C4.02755 22.5981 4.5865 24.2833 5.59846 25.6763C6.61043 27.0693 8.02394 28.0994 9.63822 28.6201C11.2525 29.1409 12.9855 29.1259 14.591 28.5772C16.1965 28.0286 17.5929 26.9742 18.5818 25.5638C19.5708 24.1535 20.102 22.4588 20.1 20.7207V12.451C21.6333 14.0262 23.9333 14.8138 27 14.8138V8.90689C23.9333 8.90689 21.6333 6.93793 20.1 3H14.35V20.7207M14.35 20.7207C14.35 20.2534 14.2151 19.7965 13.9624 19.408C13.7096 19.0194 13.3504 18.7166 12.9302 18.5378C12.5099 18.3589 12.0474 18.3121 11.6013 18.4033C11.1551 18.4945 10.7453 18.7195 10.4237 19.0499C10.102 19.3804 9.88294 19.8014 9.79419 20.2597C9.70544 20.718 9.75099 21.1931 9.92507 21.6249C10.0992 22.0566 10.394 22.4256 10.7722 22.6852C11.1504 22.9448 11.5951 23.0834 12.05 23.0834C12.66 23.0834 13.245 22.8345 13.6763 22.3914C14.1077 21.9483 14.35 21.3473 14.35 20.7207Z" stroke="white" stroke-width="2" stroke-linecap="round" stroke-linejoin="round"/>
</svg>
